<svg xmlns="http://www.w3.org/2000/svg" xmlns:xlink="http://www.w3.org/1999/xlink" viewBox="0 0 166.7 35.1"><style>.st0{fill:#f60}.st1{clip-path:url(#SVGID_2_)}.st2{fill:#fff}</style><g id="tekst_blauw"><path class="st0" d="M58.1 33.2c0 .3-.1.5-.2.8-.1.2-.3.4-.4.5-.2.2-.5.3-.7.4-.3.1-.6.1-1 .1h-2.3v-5.8h3.1c.2 0 .4.1.6.2.2.1.4.3.5.4.1.2.2.4.2.6 0 .3-.1.5-.2.8-.1.2-.3.4-.6.5.4.1.6.2.9.5-.1.3.1.6.1 1zm-1.9-2.4c0-.1 0-.2-.1-.3 0-.1-.1-.2-.2-.2s-.2-.1-.3-.1h-.7v1.2h.6c.1 0 .2 0 .3-.1.1-.1.2-.1.2-.2.2-.1.2-.2.2-.3zm.3 2.4c0-.2 0-.3-.1-.4-.1-.1-.2-.2-.3-.2-.1 0-.2-.1-.4-.1H54.8V34h.9c.1 0 .3 0 .4-.1.1-.1.2-.1.3-.3.1-.2.1-.3.1-.4zM62.9 35h-1.4v-.5c-.2.2-.5.3-.7.5-.2.1-.4.2-.7.2-.4 0-.8-.1-1-.4-.2-.3-.4-.7-.4-1.2v-2.9h1.4V33.5c0 .1 0 .3.1.4 0 .1.1.2.2.2s.2.1.4.1c.1 0 .2 0 .3-.1.1 0 .3-.1.4-.2v-3.1h1.4V35zM65.3 35.1c-.3 0-.6 0-.9-.1-.3-.1-.5-.2-.7-.2v-1.2h.1c.1 0 .1.1.2.2s.2.1.3.2c.1.1.3.1.4.2.2 0 .3.1.5.1s.4 0 .5-.1c.1-.1.2-.2.2-.3 0-.1 0-.2-.1-.2-.1-.1-.2-.1-.4-.1-.1 0-.2-.1-.4-.1s-.3-.1-.4-.1c-.3-.1-.6-.3-.8-.5-.2-.2-.3-.5-.3-.8 0-.2 0-.4.1-.6.1-.2.2-.3.4-.5l.6-.3c.3-.1.5-.1.9-.1.3 0 .6 0 .8.1.3.1.5.1.7.2V32h-.1s-.1-.1-.2-.1c-.1-.1-.2-.1-.3-.2-.1-.1-.2-.1-.4-.1-.1 0-.3-.1-.4-.1-.2 0-.4 0-.5.1-.1.1-.2.2-.2.3 0 .1 0 .2.1.2.1.1.2.1.4.2.1 0 .3.1.4.1.2 0 .3.1.4.1.3.1.6.3.7.4.2.2.2.5.2.8 0 .2 0 .4-.1.6-.1.2-.2.3-.4.5-.2.1-.4.2-.7.3h-.6zM69.5 30H68v-1.1h1.4V30zm-.1 5H68v-4.4h1.4V35zM74.6 35h-1.4v-2.2-.5c0-.2 0-.3-.1-.4 0-.1-.1-.2-.2-.2s-.2-.1-.4-.1c-.1 0-.2 0-.3.1-.1 0-.2.1-.4.2V35h-1.4v-4.4h1.4v.5c.2-.2.4-.3.7-.4.2-.1.4-.2.7-.2.4 0 .8.1 1 .4.2.3.4.7.4 1.2V35zM77.8 35.1c-.8 0-1.5-.2-1.9-.6-.4-.4-.7-1-.7-1.7s.2-1.3.6-1.7c.4-.4 1-.6 1.7-.6s1.2.2 1.5.5c.3.4.5.9.5 1.6v.4h-3c0 .2.1.4.1.5l.3.3c.1.1.3.1.4.2.2 0 .3.1.5.1s.3 0 .5-.1c.2 0 .3-.1.4-.1.1 0 .2-.1.3-.2.1-.1.2-.1.2-.2h.1v1.1c-.1 0-.2.1-.3.1-.1 0-.2.1-.4.1-.1 0-.3.1-.5.1.1.2 0 .2-.3.2zm.5-2.9c0-.3-.1-.5-.2-.7-.1-.2-.3-.2-.6-.2s-.5.1-.6.2-.2.4-.2.7h1.6zM81.7 35.1c-.3 0-.6 0-.9-.1-.3-.1-.5-.2-.7-.2v-1.2h.1c.1 0 .1.1.2.2s.2.1.3.2c.1.1.3.1.4.2.2 0 .3.1.5.1s.4 0 .5-.1c.1-.1.2-.2.2-.3 0-.1 0-.2-.1-.2-.1-.1-.2-.1-.4-.1-.1 0-.2-.1-.4-.1s-.3-.1-.4-.1c-.3-.1-.6-.3-.8-.5-.2-.2-.3-.5-.3-.8 0-.2 0-.4.1-.6.1-.2.2-.3.4-.5l.6-.3c.3-.1.5-.1.9-.1.3 0 .6 0 .8.1s.5.1.7.2V32h-.1s-.1-.1-.2-.1c-.1-.1-.2-.1-.3-.2-.1-.1-.2-.1-.4-.1-.1 0-.3-.1-.4-.1-.2 0-.4 0-.5.1-.1.1-.2.2-.2.3 0 .1 0 .2.1.2.1.1.2.1.4.2.1 0 .3.1.4.1.2 0 .3.1.4.1.3.1.6.3.7.4.2.2.2.5.2.8 0 .2 0 .4-.1.6-.1.2-.2.3-.4.5-.2.1-.4.2-.7.3h-.6zM85.8 35.1c-.3 0-.6 0-.9-.1-.3-.1-.5-.2-.7-.2v-1.2h.1c.1 0 .1.1.2.2s.2.1.3.2c.1.1.3.1.4.2.2 0 .3.1.5.1s.4 0 .5-.1c.1-.1.2-.2.2-.3 0-.1 0-.2-.1-.2-.1-.1-.2-.1-.4-.1-.1 0-.2-.1-.4-.1s-.3-.1-.4-.1c-.3-.1-.6-.3-.8-.5-.2-.2-.3-.5-.3-.8 0-.2 0-.4.1-.6.1-.2.2-.3.4-.5l.6-.3c.3-.1.5-.1.9-.1.3 0 .6 0 .8.1.3.1.5.1.7.2V32h-.1s-.1-.1-.2-.1c-.1-.1-.2-.1-.3-.2-.1-.1-.2-.1-.4-.1-.1 0-.3-.1-.4-.1-.2 0-.4 0-.5.1-.1.1-.2.2-.2.3 0 .1 0 .2.1.2.1.1.2.1.4.2.1 0 .3.1.4.1.2 0 .3.1.4.1.3.1.6.3.7.4.2.2.2.5.2.8 0 .2 0 .4-.1.6-.1.2-.2.3-.4.5-.2.1-.4.2-.7.3h-.6zM96.9 35h-1.7l-.5-.5c-.3.2-.6.4-.8.5-.3.1-.6.1-.9.1-.7 0-1.2-.2-1.6-.5-.4-.3-.6-.8-.6-1.3 0-.2 0-.4.1-.6.1-.2.1-.3.2-.4l.3-.3c.1-.1.2-.2.4-.2l-.3-.3c-.1-.1-.2-.2-.2-.3-.1-.1-.1-.2-.2-.3 0-.1-.1-.3-.1-.4 0-.2 0-.3.1-.5s.2-.3.3-.4c.1-.1.3-.2.6-.3.3-.1.6-.1.9-.1.3 0 .6 0 .8.1l.6.3c.1.1.3.2.3.4.1.2.1.3.1.5 0 .1 0 .2-.1.4 0 .1-.1.3-.2.4-.1.1-.2.3-.4.4l-.6.3 1.1 1.1v-1.3H96V32.4c0 .2-.1.3-.1.4 0 .1-.1.3-.2.4-.1.1-.2.3-.3.4l1.5 1.4zM94 33.8l-1.6-1.5c0 .1-.1.2-.1.3 0 .1-.1.3-.1.4 0 .2 0 .3.1.4.1.1.1.2.2.3.1.1.2.1.3.2.1 0 .2.1.3.1.2 0 .3 0 .4-.1.2.1.4 0 .5-.1zm-.6-3.3c0-.1 0-.2-.1-.3 0-.1-.1-.1-.1-.2 0 0-.1-.1-.2-.1h-.1-.1s-.1 0-.2.1c0 0-.1.1-.1.2s-.1.2-.1.3c0 .2.1.3.2.4.1.1.2.3.4.4.1-.1.2-.2.3-.4 0-.1.1-.3.1-.4zM104.1 31c0 .3 0 .5-.1.8-.1.2-.2.4-.4.6l-.3.3c-.1.1-.2.2-.4.2-.1.1-.3.1-.5.1s-.4.1-.6.1h-.8V35h-1.5v-5.8h2.3c.3 0 .6 0 .9.1.2.1.5.2.7.3.2.1.4.3.5.6.1.2.2.5.2.8zm-1.5 0c0-.2 0-.3-.1-.4-.1-.1-.2-.2-.3-.2-.1-.1-.3-.1-.4-.1h-.8V32h.8c.1 0 .2 0 .2-.1.1 0 .2-.1.2-.1.1-.1.2-.2.2-.3.1-.2.2-.3.2-.5zM107.7 31.9H107.1c-.1 0-.3 0-.5.1-.2 0-.3.1-.5.1V35h-1.4v-4.4h1.4v.6c.1-.1.1-.1.3-.2.1-.1.2-.2.3-.2.1-.1.2-.1.3-.2.1 0 .3-.1.4-.1h.2v1.4zM112.4 32.8c0 .7-.2 1.3-.6 1.7-.4.4-1 .6-1.7.6s-1.3-.2-1.7-.6c-.4-.4-.6-1-.6-1.7s.2-1.3.6-1.7c.4-.4 1-.6 1.7-.6s1.3.2 1.7.6c.4.4.6 1 .6 1.7zm-1.4 0c0-.3 0-.5-.1-.7 0-.2-.1-.3-.2-.4-.1-.1-.2-.2-.3-.2-.1 0-.2-.1-.3-.1-.1 0-.2 0-.3.1-.1 0-.2.1-.3.2-.1.1-.1.2-.2.4 0 .2-.1.4-.1.7 0 .3 0 .5.1.7 0 .2.1.3.2.4.1.1.2.2.3.2.1 0 .2.1.4.1.1 0 .2 0 .3-.1.1 0 .2-.1.3-.2.1-.1.1-.2.2-.4v-.7zM118.4 35v-2.2-.5c0-.1 0-.3-.1-.4 0-.1-.1-.2-.2-.2s-.2-.1-.3-.1c-.1 0-.2 0-.3.1-.1 0-.2.1-.3.2V35h-1.4v-2.2-.5c0-.1 0-.3-.1-.4 0-.1-.1-.2-.2-.2s-.2-.1-.3-.1c-.1 0-.2 0-.3.1-.1.1-.2.1-.3.2V35h-1.4v-4.4h1.4v.5c.2-.2.4-.3.6-.4.2-.1.4-.2.7-.2.3 0 .5.1.7.2.2.1.4.3.5.6.3-.2.5-.4.7-.6.2-.1.5-.2.7-.2.2 0 .4 0 .5.1.2.1.3.2.4.3.1.1.2.3.3.5.1.2.1.4.1.8V35h-1.4zM125 32.8c0 .7-.2 1.3-.6 1.7-.4.4-1 .6-1.7.6s-1.3-.2-1.7-.6c-.4-.4-.6-1-.6-1.7s.2-1.3.6-1.7c.4-.4 1-.6 1.7-.6s1.3.2 1.7.6c.4.4.6 1 .6 1.7zm-1.4 0c0-.3 0-.5-.1-.7 0-.2-.1-.3-.2-.4-.1-.1-.2-.2-.3-.2-.1 0-.2-.1-.3-.1-.1 0-.2 0-.3.1-.1 0-.2.1-.3.2-.1.1-.1.2-.2.4 0 .2-.1.4-.1.7 0 .3 0 .5.1.7 0 .2.1.3.2.4.1.1.2.2.3.2.1 0 .2.1.4.1.1 0 .2 0 .3-.1.1 0 .2-.1.3-.2.1-.1.1-.2.2-.4v-.7zM129.7 34.5c0 .4-.1.8-.2 1-.1.3-.3.5-.5.7-.2.2-.4.3-.7.4-.3.1-.6.1-.9.1-.3 0-.6 0-.8-.1-.3 0-.5-.1-.7-.1v-1.1h.2c.1 0 .1.1.2.1s.2.1.3.1c.1 0 .2 0 .3.1h.3c.2 0 .4 0 .6-.1.2 0 .3-.1.4-.2.1-.1.1-.2.2-.3v-.6c-.2.1-.3.2-.5.3-.2.1-.4.1-.6.1-.6 0-1-.2-1.3-.6-.3-.4-.5-.9-.5-1.7 0-.3 0-.7.1-.9.1-.3.2-.5.4-.7.2-.2.4-.3.6-.4.2-.1.5-.2.7-.2.2 0 .4 0 .6.1.2.1.3.1.5.2l.1-.2h1.3v4zm-1.3-.9v-2c-.1 0-.2-.1-.3-.1h-.3c-.3 0-.6.1-.7.3-.2.2-.2.5-.2.9v.5c0 .1.1.2.1.4.1.1.2.2.3.2.1.1.2.1.4.1.1 0 .2 0 .4-.1 0-.1.2-.1.3-.2zM132.2 30h-1.4v-1.1h1.4V30zm-.1 5h-1.4v-4.4h1.4V35zM136 29.9h-.1c-.1 0-.1 0-.2-.1h-.3c-.3 0-.5 0-.6.1-.1.1-.2.3-.2.6h1.1v1h-1V35h-1.4v-3.4h-.5v-1h.5v-.1c0-.5.1-.9.4-1.2.3-.3.7-.4 1.3-.4h.6c.2 0 .3 0 .4.1v.9z"/><path class="st0" d="M137.9 35.1c-.6 0-1-.1-1.2-.3-.3-.2-.4-.6-.4-1.1v-2.1h-.5v-1h.5v-1.3h1.4v1.3h1.3v1h-1.3v2c0 .1 0 .2.1.3 0 .1.1.2.2.2.1.1.2.1.4.1h.3c.1 0 .2-.1.2-.1h.1v1c-.1 0-.3.1-.5.1-.1-.1-.3-.1-.6-.1zM140.9 35.1c-.3 0-.6 0-.9-.1-.3-.1-.5-.2-.7-.2v-1.2h.1c.1 0 .1.1.2.2s.2.1.3.2c.1.1.3.1.4.2.2 0 .3.1.5.1s.4 0 .5-.1c.1-.1.2-.2.2-.3 0-.1 0-.2-.1-.2-.1-.1-.2-.1-.4-.1-.1 0-.2-.1-.4-.1s-.3-.1-.4-.1c-.3-.1-.6-.3-.8-.5-.2-.2-.3-.5-.3-.8 0-.2 0-.4.1-.6.1-.2.2-.3.4-.5l.6-.3c.3-.1.5-.1.9-.1.3 0 .6 0 .8.1.3.1.5.1.7.2V32h-.1s-.1-.1-.2-.1c-.1-.1-.2-.1-.3-.2-.1-.1-.2-.1-.4-.1-.1 0-.3-.1-.4-.1-.2 0-.4 0-.5.1-.1.1-.2.2-.2.3 0 .1 0 .2.1.2.1.1.2.1.4.2.1 0 .3.1.4.1.2 0 .3.1.4.1.3.1.6.3.7.4.2.2.2.5.2.8 0 .2 0 .4-.1.6-.1.2-.2.3-.4.5-.2.1-.4.2-.7.3h-.6z"/><circle class="st0" cx="17.2" cy="17.2" r="17.2"/><g><path class="st0" d="M35 25.2h-4.1L35.8 7h4.1L35 25.2zM42.2 25.2h-4.1L43 6.9h4.1l-4.9 18.3zM60 18.4c-.6 2.1-1.5 3.8-3 5.1-1.4 1.3-2.9 1.9-4.5 1.9-.7 0-1.2-.1-1.6-.2-.4-.1-.9-.4-1.4-.7L48.1 30H44l4.8-18H53l-.4 1.4c.7-.5 1.5-.9 2.2-1.3.7-.3 1.5-.5 2.3-.5 1.5 0 2.5.6 3 1.8.5 1.3.5 2.9-.1 5zm-4.2.1c.3-1.3.4-2.2.2-2.8-.2-.6-.8-.9-1.6-.9-.4 0-.7.1-1.1.2-.4.1-.8.3-1.2.5l-1.8 6.6c.2.1.4.2.7.2.2 0 .6.1.9.1 1 0 1.8-.3 2.5-1 .6-.6 1.1-1.6 1.4-2.9zM71.8 15.9h-.3c-.1-.1-.4-.1-.6-.1h-1c-.4 0-.9.1-1.4.2-.5.1-1 .3-1.5.4l-2.4 8.8h-4.1L64 12h4.1l-.5 1.9c.2-.2.5-.4 1-.7.4-.3.8-.5 1.1-.6.3-.2.7-.3 1.2-.5.4-.1.8-.2 1.2-.2h.8l-1.1 4zM77.5 25.5c-2.5 0-4.2-.6-5.2-1.8-1-1.2-1.2-2.9-.6-5.1.6-2.1 1.7-3.9 3.2-5.1 1.6-1.3 3.5-1.9 5.7-1.9 2 0 3.4.5 4.1 1.6.7 1.1.8 2.6.3 4.7l-.4 1.5h-9c-.1.6-.1 1.1 0 1.5.1.4.3.7.6 1 .3.2.7.4 1.1.5.4.1.9.2 1.5.2.5 0 1-.1 1.4-.2.5-.1.9-.2 1.4-.4.4-.1.7-.3 1.1-.5.3-.2.6-.3.8-.5h.4l-.9 3.4c-.4.1-.7.3-1 .4-.3.1-.7.2-1.2.3-.5.1-1 .2-1.4.3-.7.1-1.2.1-1.9.1zm3.6-8.6c.2-.9.2-1.5-.1-2-.3-.5-.8-.7-1.6-.7s-1.5.2-2.1.7c-.6.5-1 1.1-1.3 1.9h5.1zM100.8 25.2l1.8-6.6c.2-.6.3-1.2.4-1.6.1-.4.1-.8.1-1.1 0-.3-.2-.5-.4-.6-.2-.1-.5-.2-1-.2-.3 0-.6.1-1 .2-.3.1-.7.3-1.1.6l-2.5 9.3H93l1.8-6.6c.2-.6.3-1.2.4-1.6.1-.4.1-.8.1-1.1 0-.3-.2-.5-.4-.6s-.5-.2-1-.2c-.3 0-.7.1-1 .2-.4.2-.7.3-1.1.6l-2.5 9.3h-4.1L88.6 12h4.1l-.4 1.5c.8-.6 1.6-1 2.3-1.3.7-.3 1.4-.5 2.1-.5.8 0 1.5.2 2 .6.5.4.8 1 .9 1.7 1-.7 1.9-1.3 2.7-1.7.8-.4 1.6-.6 2.3-.6.6 0 1.1.1 1.6.3.4.2.8.5 1 .9.3.4.4.9.4 1.5s-.1 1.3-.3 2.3l-2.3 8.6h-4.2zM112.1 25.2H108l3.5-13.2h4.1l-3.5 13.2zm4.1-15.1h-4.3l.9-3.2h4.3l-.9 3.2zM127.4 25.2h-4.1l.4-1.5c-.9.6-1.6 1-2.3 1.4-.7.3-1.4.5-2.2.5-1.3 0-2.2-.4-2.7-1.2-.5-.8-.5-2.1-.1-3.7l2.3-8.6h4.1l-1.7 6.5c-.2.7-.3 1.2-.4 1.7-.1.4-.1.8 0 1.1.1.3.2.5.4.6.2.1.6.2 1 .2.3 0 .6-.1 1.1-.2.4-.1.8-.3 1.2-.6l2.5-9.3h4.1l-3.6 13.1zM146.3 25.2l1.8-6.6c.2-.6.3-1.2.4-1.6.1-.4.1-.8.1-1.1 0-.3-.2-.5-.4-.6-.2-.1-.5-.2-1-.2-.3 0-.6.1-1 .2-.3.1-.7.3-1.1.6l-2.5 9.3h-4.1l1.8-6.6c.2-.6.3-1.2.4-1.6.1-.4.1-.8.1-1.1 0-.3-.2-.5-.4-.6-.2-.1-.5-.2-1-.2-.3 0-.7.1-1 .2-.4.2-.7.3-1.1.6l-2.5 9.3h-4.1l3.5-13.2h4.1l-.4 1.5c.8-.6 1.6-1 2.3-1.3.7-.3 1.4-.5 2.1-.5.8 0 1.5.2 2 .6.5.4.8 1 .9 1.7 1-.7 1.9-1.3 2.7-1.7.8-.4 1.6-.6 2.3-.6.6 0 1.1.1 1.6.3.4.2.8.5 1 .9.3.4.4.9.4 1.5s-.1 1.3-.3 2.3l-2.3 8.6h-4.3zM157.4 25.5c-1 0-1.9-.1-2.7-.3-.8-.2-1.5-.5-1.9-.7l.9-3.5h.3c.2.1.3.3.5.5s.5.4.9.6c.3.2.7.3 1.2.5.4.1 1 .2 1.5.2.6 0 1.1-.1 1.6-.3.5-.2.8-.5.9-.9.1-.3 0-.5-.1-.7-.2-.2-.5-.3-1.1-.4-.3-.1-.7-.2-1.1-.3-.5-.1-.8-.2-1.2-.3-.9-.3-1.6-.8-1.9-1.4-.4-.6-.4-1.5-.1-2.5.2-.6.4-1.1.8-1.7.4-.5.9-1 1.6-1.4.6-.4 1.4-.7 2.2-.9.8-.2 1.7-.4 2.7-.4.9 0 1.7.1 2.5.3.7.2 1.3.4 1.8.7l-.9 3.3h-.3c-.1-.1-.3-.3-.5-.4-.3-.2-.5-.3-.8-.5-.3-.2-.7-.3-1-.4-.4-.1-.8-.2-1.3-.2-.6 0-1.1.1-1.6.3-.5.2-.7.5-.8.8-.1.3 0 .5.1.7.2.2.6.3 1.2.5.3.1.7.2 1.1.3l1.2.3c.9.3 1.5.8 1.8 1.3.3.6.4 1.4.1 2.3-.2.6-.5 1.2-.9 1.8-.4.6-1 1-1.6 1.4-.7.4-1.4.7-2.2 1-.9.3-1.9.4-2.9.4z"/></g></g><g id="tekst_wit"><defs><circle id="SVGID_1_" cx="17.2" cy="17.2" r="17.2"/></defs><clipPath id="SVGID_2_"><use xlink:href="#SVGID_1_" overflow="visible"/></clipPath><g class="st1"><path class="st2" d="M1.1 30.1L19.4-.2h8.3L29.8 30H22l-.2-6.2h-9.5L8.8 30H1.1zm20.5-11.7l-.4-10-5.8 10h6.2z"/></g><g class="st1"><path class="st2" d="M35 25.2h-4.1L35.8 7h4.1L35 25.2zM42.2 25.2h-4.1L43 6.9h4.1l-4.9 18.3zM60 18.4c-.6 2.1-1.5 3.8-3 5.1-1.4 1.3-2.9 1.9-4.5 1.9-.7 0-1.2-.1-1.6-.2-.4-.1-.9-.4-1.4-.7L48.1 30H44l4.8-18H53l-.4 1.4c.7-.5 1.5-.9 2.2-1.3.7-.3 1.5-.5 2.3-.5 1.5 0 2.5.6 3 1.8.5 1.3.5 2.9-.1 5zm-4.2.1c.3-1.3.4-2.2.2-2.8-.2-.6-.8-.9-1.6-.9-.4 0-.7.1-1.1.2-.4.1-.8.3-1.2.5l-1.8 6.6c.2.1.4.2.7.2.2 0 .6.1.9.1 1 0 1.8-.3 2.5-1 .6-.6 1.1-1.6 1.4-2.9zM71.8 15.9h-.3c-.1-.1-.4-.1-.6-.1h-1c-.4 0-.9.1-1.4.2-.5.1-1 .3-1.5.4l-2.4 8.8h-4.1L64 12h4.1l-.5 1.9c.2-.2.5-.4 1-.7.4-.3.8-.5 1.1-.6.3-.2.7-.3 1.2-.5.4-.1.8-.2 1.2-.2h.8l-1.1 4zM77.5 25.5c-2.5 0-4.2-.6-5.2-1.8-1-1.2-1.2-2.9-.6-5.1.6-2.1 1.7-3.9 3.2-5.1 1.6-1.3 3.5-1.9 5.7-1.9 2 0 3.4.5 4.1 1.6.7 1.1.8 2.6.3 4.7l-.4 1.5h-9c-.1.6-.1 1.1 0 1.5.1.4.3.7.6 1 .3.2.7.4 1.1.5.4.1.9.2 1.5.2.5 0 1-.1 1.4-.2.5-.1.9-.2 1.4-.4.4-.1.7-.3 1.1-.5.3-.2.6-.3.8-.5h.4l-.9 3.4c-.4.1-.7.3-1 .4-.3.1-.7.2-1.2.3-.5.1-1 .2-1.4.3-.7.1-1.2.1-1.9.1zm3.6-8.6c.2-.9.2-1.5-.1-2-.3-.5-.8-.7-1.6-.7s-1.5.2-2.1.7c-.6.5-1 1.1-1.3 1.9h5.1zM100.8 25.2l1.8-6.6c.2-.6.3-1.2.4-1.6.1-.4.1-.8.1-1.1 0-.3-.2-.5-.4-.6-.2-.1-.5-.2-1-.2-.3 0-.6.1-1 .2-.3.1-.7.3-1.1.6l-2.5 9.3H93l1.8-6.6c.2-.6.3-1.2.4-1.6.1-.4.1-.8.1-1.1 0-.3-.2-.5-.4-.6s-.5-.2-1-.2c-.3 0-.7.1-1 .2-.4.2-.7.3-1.1.6l-2.5 9.3h-4.1L88.6 12h4.1l-.4 1.5c.8-.6 1.6-1 2.3-1.3.7-.3 1.4-.5 2.1-.5.8 0 1.5.2 2 .6.5.4.8 1 .9 1.7 1-.7 1.9-1.3 2.7-1.7.8-.4 1.6-.6 2.3-.6.6 0 1.1.1 1.6.3.4.2.8.5 1 .9.3.4.4.9.4 1.5s-.1 1.3-.3 2.3l-2.3 8.6h-4.2zM112.1 25.2H108l3.5-13.2h4.1l-3.5 13.2zm4.1-15.1h-4.3l.9-3.2h4.3l-.9 3.2zM127.4 25.2h-4.1l.4-1.5c-.9.6-1.6 1-2.3 1.4-.7.3-1.4.5-2.2.5-1.3 0-2.2-.4-2.7-1.2-.5-.8-.5-2.1-.1-3.7l2.3-8.6h4.1l-1.7 6.5c-.2.7-.3 1.2-.4 1.7-.1.4-.1.8 0 1.1.1.3.2.5.4.6.2.1.6.2 1 .2.3 0 .6-.1 1.1-.2.4-.1.8-.3 1.2-.6l2.5-9.3h4.1l-3.6 13.1zM146.3 25.2l1.8-6.6c.2-.6.3-1.2.4-1.6.1-.4.1-.8.1-1.1 0-.3-.2-.5-.4-.6-.2-.1-.5-.2-1-.2-.3 0-.6.1-1 .2-.3.1-.7.3-1.1.6l-2.5 9.3h-4.1l1.8-6.6c.2-.6.3-1.2.4-1.6.1-.4.1-.8.1-1.1 0-.3-.2-.5-.4-.6-.2-.1-.5-.2-1-.2-.3 0-.7.1-1 .2-.4.2-.7.3-1.1.6l-2.5 9.3h-4.1l3.5-13.2h4.1l-.4 1.5c.8-.6 1.6-1 2.3-1.3.7-.3 1.4-.5 2.1-.5.8 0 1.5.2 2 .6.5.4.8 1 .9 1.7 1-.7 1.9-1.3 2.7-1.7.8-.4 1.6-.6 2.3-.6.6 0 1.1.1 1.6.3.4.2.8.5 1 .9.3.4.4.9.4 1.5s-.1 1.3-.3 2.3l-2.3 8.6h-4.3zM157.4 25.5c-1 0-1.9-.1-2.7-.3-.8-.2-1.5-.5-1.9-.7l.9-3.5h.3c.2.1.3.3.5.5s.5.4.9.6c.3.2.7.3 1.2.5.4.1 1 .2 1.5.2.6 0 1.1-.1 1.6-.3.5-.2.8-.5.9-.9.1-.3 0-.5-.1-.7-.2-.2-.5-.3-1.1-.4-.3-.1-.7-.2-1.1-.3-.5-.1-.8-.2-1.2-.3-.9-.3-1.6-.8-1.9-1.4-.4-.6-.4-1.5-.1-2.5.2-.6.4-1.1.8-1.7.4-.5.9-1 1.6-1.4.6-.4 1.4-.7 2.2-.9.8-.2 1.7-.4 2.7-.4.9 0 1.7.1 2.5.3.7.2 1.3.4 1.8.7l-.9 3.3h-.3c-.1-.1-.3-.3-.5-.4-.3-.2-.5-.3-.8-.5-.3-.2-.7-.3-1-.4-.4-.1-.8-.2-1.3-.2-.6 0-1.1.1-1.6.3-.5.2-.7.5-.8.8-.1.3 0 .5.1.7.2.2.6.3 1.2.5.3.1.7.2 1.1.3l1.2.3c.9.3 1.5.8 1.8 1.3.3.6.4 1.4.1 2.3-.2.6-.5 1.2-.9 1.8-.4.6-1 1-1.6 1.4-.7.4-1.4.7-2.2 1-.9.3-1.9.4-2.9.4z"/></g></g></svg>